<svg xmlns="http://www.w3.org/2000/svg" xmlns:xlink="http://www.w3.org/1999/xlink" viewBox="0,0,256,256" width="16px" height="16px" fill-rule="nonzero"><g fill="#000000" fill-rule="nonzero" stroke="none" stroke-width="1" stroke-linecap="butt" stroke-linejoin="miter" stroke-miterlimit="10" stroke-dasharray="" stroke-dashoffset="0" font-family="none" font-weight="none" font-size="none" text-anchor="none" style="mix-blend-mode: normal"><g transform="scale(10.66667,10.66667)"><path d="M9.03125,-0.03125c-0.46484,0 -0.84375,0.37891 -0.84375,0.84375v2.875c-2.71875,0.30859 -4.59375,0.93359 -4.59375,1.65625v1.375c0,0.28125 0.30078,0.53906 0.8125,0.78125c1.33984,0.62891 4.23828,1.0625 7.59375,1.0625c3.35938,0 6.25,-0.43359 7.59375,-1.0625c0.50781,-0.24219 0.8125,-0.5 0.8125,-0.78125v-1.375c0,-0.74609 -2.02734,-1.39453 -4.90625,-1.6875v-2.84375c0,-0.46484 -0.37891,-0.84375 -0.84375,-0.84375zM9.875,1.5h3.96875c0.08594,0 0.125,0.40234 0.125,0.90625v1.125c-0.63672,-0.03125 -1.28125,-0.0625 -1.96875,-0.0625c-0.71094,0 -1.40625,0.02734 -2.0625,0.0625l-0.21875,0.03125v-1.15625c0,-0.50391 0.07422,-0.90625 0.15625,-0.90625zM4.78125,9.53125c-0.08984,0.09375 -0.13672,0.17969 -0.15625,0.28125v0.0625c0,0.01563 -0.00391,0.05078 0,0.0625l0.5625,11.75c0.05078,0.92188 1.11719,2.3125 6.8125,2.3125c5.69531,0 6.76172,-1.39062 6.8125,-2.3125l0.5625,-11.75c0,-0.01562 0,-0.04687 0,-0.0625v-0.0625c-0.01562,-0.10156 -0.06641,-0.1875 -0.15625,-0.28125c-0.73437,0.74609 -3.69141,0.84375 -7.21875,0.84375c-3.52734,0 -6.48047,-0.09766 -7.21875,-0.84375z"></path></g></g></svg>